<svg id="Calque_1" data-name="Calque 1" xmlns="http://www.w3.org/2000/svg" viewBox="0 0 1435.14301 734.06045"><defs><style>.cls-1{fill:#193a80;}.cls-2{fill:#fc7d00;}</style></defs><path class="cls-1" d="M111.506,344.07341h34.372q-.0859,8.61631,3.49739,11.08753a14.16153,14.16153,0,0,0,6.6099,1.91917q4.04944.29967,25.54459.46881,22.51667-.08391,27.03758-.29833a21.54441,21.54441,0,0,0,7.16394-1.32252q3.92159-1.61817,3.92359-8.78478,0-5.20014-2.77155-6.95084-2.77289-1.748-11.30195-1.91918-6.56861,0-27.80472-1.02285-21.74952-1.02485-28.31614-1.19465-12.7936-.42552-19.65921-2.4306a21.5073,21.5073,0,0,1-10.70529-6.52466q-6.5686-7.50356-6.56728-25.07579,0-19.70182,7.50622-27.80471,5.71357-6.3109,17.56957-8.06027,11.85467-1.746,48.18978-1.7487,25.67112,0,36.07807,1.45037,16.034,2.21951,22.00458,8.91264,5.96928,6.69646,5.97061,22.56,0,1.45036-.08523,5.45786h-34.372a25.60012,25.60012,0,0,0-.81108-6.65252,5.50245,5.50245,0,0,0-2.51584-2.8994q-2.3014-1.36246-8.10288-1.7487-5.79948-.38357-24.563-.38357-22.60257,0-27.549,1.40775-4.94842,1.40641-4.94643,7.80322,0,6.14109,4.94643,7.50622,4.0934,1.10876,37.61368,2.13227,28.22824.853,37.74021,2.00441,9.50929,1.15071,15.14029,4.39239a21.052,21.052,0,0,1,9.0405,10.53349q2.643,6.69646,2.64369,19.233,0,16.46148-4.435,24.4778a21.06533,21.06533,0,0,1-9.25359,8.78478q-5.92932,2.90073-16.67457,3.92358-11.515,1.02486-42.90106,1.02418-26.27244,0-38.80834-1.36513-12.53788-1.36246-18.84946-4.86119a20.1514,20.1514,0,0,1-9.08311-9.8942q-2.51717-6.14109-2.51584-18.679Z"/><path class="cls-1" d="M492.15222,316.60965h81.1114q.16982,2.81483.17048,3.15511,0,24.65026-1.27856,37.10226-2.04769,20.12935-22.85829,24.39255a146.9079,146.9079,0,0,1-20.51292,2.43193q-11.557.63928-35.267.63928-30.02423,0-42.47488-1.62084-12.454-1.61817-19.70183-6.482a22.31487,22.31487,0,0,1-7.59146-8.52907,41.5774,41.5774,0,0,1-3.66787-13.73122q-1.02285-7.93306-1.02285-31.38735,0-15.94806.85237-24.05294a56.46649,56.46649,0,0,1,3.32692-14.49835q5.03034-13.47684,21.40792-16.37624,17.90985-3.15446,55.01277-3.15645,22.00524,0,34.79818,1.10942a103.01635,103.01635,0,0,1,21.067,3.66787q13.38894,4.1793,16.20577,18.081a107.341,107.341,0,0,1,1.449,19.01994H537.6983a30.26082,30.26082,0,0,0-.598-6.69514,5.54847,5.54847,0,0,0-2.13227-2.942q-2.98663-2.13161-12.45265-2.645-8.95394-.51143-25.92816-.51142-18.42327,0-26.31173.85237-7.89113.855-10.7892,3.15645-2.90073,2.38932-3.92358,7.80455-1.02285,5.41591-1.02418,18.5498,0,14.75739,1.02418,20.59816,1.02285,5.84343,3.92358,8.23074a14.13091,14.13091,0,0,0,7.54751,2.77155q4.64877.46947,29.38294.81108,24.22275-.1698,29.42556-.47013a26.795,26.795,0,0,0,8.3586-1.5769,6.66783,6.66783,0,0,0,3.62525-3.62525,20.3576,20.3576,0,0,0,1.06547-7.54884q0-.76715-.08524-3.24036H492.15222Z"/><path class="cls-2" d="M879.69751,266.20236h35.48008v53.47717q.25572,18.42327,1.2799,23.28446,1.36247,6.82432,8.8274,8.95659,7.4616,2.13161,30.15008,2.13227,18.42327,0,25.54459-1.0668,7.12-1.0648,10.10729-4.22191a12.749,12.749,0,0,0,2.77155-5.37263,63.82136,63.82136,0,0,0,1.23728-10.83314q.42552-7.84518.42618-12.87884V266.20236h35.48142v53.47717q-.59733,27.89061-1.79132,36.50559-2.1336,14.66949-13.98826,21.49315-6.73842,3.92358-19.01994,5.28738-12.28018,1.36447-40.34261,1.36513-21.0663,0-32.49544-.76846a125.968,125.968,0,0,1-19.8723-2.72893q-18.679-4.433-21.83544-22.516a107.60888,107.60888,0,0,1-1.49165-12.5379q-.29967-5.62966-.46881-26.1Z"/><path class="cls-1" d="M1027.55782,266.20236h38.97748l42.47487,87.16726h6.65252l42.04869-87.16726h38.72177L1139.63039,382.6247H1085.129Z"/><path class="cls-1" d="M1269.40837,264.49628q37.69759,0,51.85766,1.87656,20.38306,2.73091,24.99055,19.36088,3.15444,11.43114,3.15511,38.63786,0,27.2933-3.15511,38.72177-4.60683,16.63128-24.99055,19.36088-14.16008,1.87588-51.51538,1.87655-38.04119,0-52.1986-1.87655-20.38506-2.72894-24.99055-19.36088-3.15645-11.42914-3.15511-39.405,0-26.61006,3.15511-37.95463,4.60682-16.6313,24.99055-19.36088Q1231.62423,264.49893,1269.40837,264.49628Zm.08524,30.27927q-28.23024,0-33.94581,1.449-6.5686,1.70808-8.6143,7.63408-2.0457,5.92934-2.047,23.5828,0,10.662,1.10941,15.4373,2.13161,8.872,12.87885,10.14991,7.93107,1.02285,30.78936,1.02418,21.40791,0,28.48794-.76847,7.078-.76713,10.49087-3.41083a12.109,12.109,0,0,0,4.17929-7.03741q1.10676-4.64677,1.10809-15.22421a142.36117,142.36117,0,0,0-.85237-18.42327q-.85305-5.88338-3.07122-8.87-2.81283-3.75177-9.2962-4.6481Q1294.22778,294.77555,1269.49361,294.77555Z"/><path class="cls-1" d="M578.68952,266.20236H707.64975v27.37853H613.65817v16.80243h89.21429v25.58721H613.65817v18.679h94.67348V382.6247H578.68952Z"/><path class="cls-2" d="M710.685,266.20236h62.17671l60.98338,86.82631H837.513l-.85371-86.82631h36.07807V382.6247H811.07206L749.833,295.79839h-3.83835l.76847,86.82631H710.685Z"/><path class="cls-1" d="M139.55279,414.02992a3.01866,3.01866,0,0,0,1.04882,1.14838,8.4,8.4,0,0,0,2.09826.98557q1.33655.45084,3.39441.943a32.49079,32.49079,0,0,1,4.01119,1.27236,10.03546,10.03546,0,0,1,2.90037,1.70315,6.71987,6.71987,0,0,1,1.74824,2.33934,7.63214,7.63214,0,0,1,.59736,3.13832,8.48033,8.48033,0,0,1-.7539,3.653,7.71965,7.71965,0,0,1-2.09575,2.70751,9.24051,9.24051,0,0,1-3.22724,1.68312,14.15091,14.15091,0,0,1-4.14142.57482,18.13176,18.13176,0,0,1-6.36054-1.12834,17.36565,17.36565,0,0,1-5.62167-3.46768l3.03625-3.61169a17.59765,17.59765,0,0,0,4.22659,2.77013,11.64544,11.64544,0,0,0,4.84272.96429,6.264,6.264,0,0,0,3.71376-.98433,3.1147,3.1147,0,0,0,1.37442-2.66744,3.4628,3.4628,0,0,0-.26737-1.39508,2.80244,2.80244,0,0,0-.98745-1.1296,8.31887,8.31887,0,0,0-1.97491-.96429,33.48265,33.48265,0,0,0-3.27044-.943,34.43391,34.43391,0,0,1-4.09321-1.191,10.41935,10.41935,0,0,1-3.00369-1.64054,6.53091,6.53091,0,0,1-1.85156-2.38066,8.16145,8.16145,0,0,1-.63743-3.40632,7.87216,7.87216,0,0,1,.732-3.42635,8.02265,8.02265,0,0,1,2.015-2.64615,8.93882,8.93882,0,0,1,3.08384-1.70316,12.47547,12.47547,0,0,1,3.936-.59485,16.4438,16.4438,0,0,1,5.683.923,16.93984,16.93984,0,0,1,4.74,2.68748L151.73975,412.06a17.56821,17.56821,0,0,0-3.89848-2.19532,10.56985,10.56985,0,0,0-3.89785-.76016,5.308,5.308,0,0,0-3.447,1.00561,3.05324,3.05324,0,0,0-1.23166,2.442A3.46163,3.46163,0,0,0,139.55279,414.02992Z"/><path class="cls-1" d="M193.06384,425.1092a14.44992,14.44992,0,0,1-3.11891,4.74,14.967,14.967,0,0,1-10.83383,4.41067,15.35022,15.35022,0,0,1-6.07313-1.16967,14.24754,14.24754,0,0,1-7.797-7.89964,15.45221,15.45221,0,0,1,0-11.49,14.43452,14.43452,0,0,1,3.11891-4.73879,14.96121,14.96121,0,0,1,10.8332-4.41192,15.35545,15.35545,0,0,1,6.07375,1.16967,14.263,14.263,0,0,1,7.797,7.89964,15.45234,15.45234,0,0,1,0,11.49Zm-4.90409-9.62283a10.06789,10.06789,0,0,0-2.0106-3.2623,9.59466,9.59466,0,0,0-3.09825-2.21661,9.93222,9.93222,0,0,0-7.85831-.02,9.28284,9.28284,0,0,0-3.05754,2.17528,10.00111,10.00111,0,0,0-1.98994,3.241,11.27881,11.27881,0,0,0,0,7.92093,10.05684,10.05684,0,0,0,2.0106,3.2623,9.55917,9.55917,0,0,0,3.09824,2.21536,9.93224,9.93224,0,0,0,7.85832.02,9.2771,9.2771,0,0,0,3.05691-2.174,10.01675,10.01675,0,0,0,1.99057-3.24226,11.27548,11.27548,0,0,0,0-7.91967Z"/><path class="cls-1" d="M227.06122,431.28565a15.31263,15.31263,0,0,1-2.60608,1.59921,13.15475,13.15475,0,0,1-3.05692,1.02691,17.98121,17.98121,0,0,1-3.67305.34814,14.58716,14.58716,0,0,1-5.827-1.14838,14.29561,14.29561,0,0,1-4.61606-3.13957,14.44861,14.44861,0,0,1-3.05754-4.6987,15.91065,15.91065,0,0,1-.02066-11.61278,14.3072,14.3072,0,0,1,7.73558-7.941,14.94485,14.94485,0,0,1,5.99111-1.16967,18.21485,18.21485,0,0,1,3.591.32811,14.57476,14.57476,0,0,1,2.97489.92421,13.9576,13.9576,0,0,1,2.50339,1.41512,19.69322,19.69322,0,0,1,2.17465,1.80585l-3.24163,3.73442a16.23107,16.23107,0,0,0-3.6524-2.586,9.5238,9.5238,0,0,0-4.39063-.98433,8.98688,8.98688,0,0,0-3.79579.80024,9.39054,9.39054,0,0,0-3.01621,2.17528,9.759,9.759,0,0,0-1.9699,3.221,11.15476,11.15476,0,0,0-.69755,3.97987,11.31186,11.31186,0,0,0,.69755,4.00117,9.9226,9.9226,0,0,0,1.9699,3.26229,9.24379,9.24379,0,0,0,3.01621,2.19532,8.98688,8.98688,0,0,0,3.79579.80024,9.48761,9.48761,0,0,0,4.514-1.00437,17.773,17.773,0,0,0,3.73379-2.7288l3.24226,3.28233A18.57141,18.57141,0,0,1,227.06122,431.28565Z"/><path class="cls-1" d="M244.07024,405.042v28.72574h-5.00615V405.042Z"/><path class="cls-1" d="M277.14467,409.598H260.89455v7.38619h14.40357v4.55469H260.89455v7.67423h16.4555v4.55469H255.88777V405.042h21.2569Zm-13.5833-6.93535,4.34993-6.73,4.514,2.01122-5.00615,4.71875Z"/><path class="cls-1" d="M299.63259,433.76775h-5.0888V409.72068h-9.11V405.042H308.7426v4.67867h-9.11Z"/><path class="cls-1" d="M339.43762,409.598H323.1875v7.38619h14.40357v4.55469H323.1875v7.67423H339.643v4.55469H318.18072V405.042h21.2569Zm-13.5833-6.93535,4.34993-6.73,4.514,2.01122-5.00615,4.71875Z"/><path class="cls-1" d="M391.06016,425.04784a13.327,13.327,0,0,1-3.13894,4.57473,14.84213,14.84213,0,0,1-4.84272,3.03687,16.69722,16.69722,0,0,1-6.17582,1.10831H366.1922V405.042h10.71048a16.97918,16.97918,0,0,1,6.17582,1.08827,14.60811,14.60811,0,0,1,4.84272,3.01559,13.40279,13.40279,0,0,1,3.13894,4.55469,14.42115,14.42115,0,0,1,1.10831,5.663A14.56662,14.56662,0,0,1,391.06016,425.04784Zm-4.906-9.53643a9.36459,9.36459,0,0,0-2.01561-3.11076,9.09425,9.09425,0,0,0-3.14771-2.06132,10.972,10.972,0,0,0-4.1145-.74138H371.199v19.61511h5.6774a11.25122,11.25122,0,0,0,4.1145-.72134,8.99982,8.99982,0,0,0,3.14771-2.01874,9.15313,9.15313,0,0,0,2.01561-3.09073,11.11407,11.11407,0,0,0,0-7.87084Z"/><path class="cls-1" d="M423.64243,409.598H407.39231v7.38619h14.40357v4.55469H407.39231v7.67423h16.4555v4.55469H402.38553V405.042h21.2569Z"/><path class="cls-1" d="M473.64447,431.51107a17.63419,17.63419,0,0,1-6.01177,2.4007,18.23847,18.23847,0,0,1-3.61106.34814,15.95447,15.95447,0,0,1-6.11446-1.12834,13.64105,13.64105,0,0,1-7.7143-7.817,15.85766,15.85766,0,0,1-1.067-5.86837,15.27728,15.27728,0,0,1,1.087-5.74565,14.38388,14.38388,0,0,1,7.75625-7.961,14.782,14.782,0,0,1,5.97044-1.1897,20.14752,20.14752,0,0,1,3.42635.26674,15.91859,15.91859,0,0,1,2.85216.75891,14.48949,14.48949,0,0,1,2.48273,1.211,18.3273,18.3273,0,0,1,2.27734,1.66183l-3.20093,3.81708a18.05607,18.05607,0,0,0-1.68187-1.27236,10.47915,10.47915,0,0,0-1.80584-.96429,11.19536,11.19536,0,0,0-2.07259-.61614,12.69894,12.69894,0,0,0-2.48273-.22542,8.50668,8.50668,0,0,0-3.67243.80149A9.1728,9.1728,0,0,0,457.107,412.189a10.53028,10.53028,0,0,0-1.96928,3.24852,10.8094,10.8094,0,0,0-.7182,3.94731,11.76866,11.76866,0,0,0,.69754,4.11137,9.52593,9.52593,0,0,0,1.98994,3.26856,9.23765,9.23765,0,0,0,3.0782,2.159,9.87349,9.87349,0,0,0,4.00054.78145,11.98278,11.98278,0,0,0,3.83711-.59861,10.80288,10.80288,0,0,0,3.09824-1.58794v-5.405h-7.34548V417.723h12.22891v12.06486A21.55851,21.55851,0,0,1,473.64447,431.51107Z"/><path class="cls-1" d="M507.92989,409.598H491.67977v7.38619h14.40357v4.55469H491.67977v7.67423h16.4555v4.55469H486.673V405.042h21.2569Z"/><path class="cls-1" d="M522.78555,414.02992a3.01866,3.01866,0,0,0,1.04882,1.14838,8.4,8.4,0,0,0,2.09826.98557q1.33655.45084,3.39442.943a32.49115,32.49115,0,0,1,4.01118,1.27236,10.03546,10.03546,0,0,1,2.90037,1.70315,6.71987,6.71987,0,0,1,1.74824,2.33934,7.63214,7.63214,0,0,1,.59736,3.13832,8.48018,8.48018,0,0,1-.7539,3.653,7.71965,7.71965,0,0,1-2.09575,2.70751,9.24051,9.24051,0,0,1-3.22724,1.68312,14.15091,14.15091,0,0,1-4.14142.57482,18.13176,18.13176,0,0,1-6.36054-1.12834,17.36565,17.36565,0,0,1-5.62167-3.46768l3.03625-3.61169a17.59765,17.59765,0,0,0,4.22659,2.77013,11.64544,11.64544,0,0,0,4.84272.96429,6.264,6.264,0,0,0,3.71376-.98433,3.1147,3.1147,0,0,0,1.37442-2.66744,3.4628,3.4628,0,0,0-.26737-1.39508,2.80244,2.80244,0,0,0-.98745-1.1296,8.31887,8.31887,0,0,0-1.97491-.96429,33.48265,33.48265,0,0,0-3.27044-.943,34.43391,34.43391,0,0,1-4.09321-1.191,10.41935,10.41935,0,0,1-3.00369-1.64054,6.53091,6.53091,0,0,1-1.85156-2.38066,8.16145,8.16145,0,0,1-.63743-3.40632,7.87216,7.87216,0,0,1,.732-3.42635,8.02265,8.02265,0,0,1,2.015-2.64615,8.93882,8.93882,0,0,1,3.08384-1.70316,12.47547,12.47547,0,0,1,3.936-.59485,16.4438,16.4438,0,0,1,5.683.923,16.93984,16.93984,0,0,1,4.74,2.68748L534.97251,412.06a17.56821,17.56821,0,0,0-3.89848-2.19532,10.56985,10.56985,0,0,0-3.89785-.76016,5.308,5.308,0,0,0-3.447,1.00561,3.05324,3.05324,0,0,0-1.23166,2.442A3.46178,3.46178,0,0,0,522.78555,414.02992Z"/><path class="cls-1" d="M560.16858,433.76775h-5.08881V409.72068h-9.11V405.042h23.30883v4.67867h-9.11Z"/><path class="cls-1" d="M584.01027,405.042v28.72574h-5.00616V405.042Z"/><path class="cls-1" d="M623.48718,425.1092a14.4499,14.4499,0,0,1-3.1189,4.74,14.96706,14.96706,0,0,1-10.83383,4.41067,15.35018,15.35018,0,0,1-6.07313-1.16967,14.24746,14.24746,0,0,1-7.797-7.89964,15.45221,15.45221,0,0,1,0-11.49,14.4345,14.4345,0,0,1,3.1189-4.73879,14.96121,14.96121,0,0,1,10.8332-4.41192,15.3555,15.3555,0,0,1,6.07376,1.16967,14.26293,14.26293,0,0,1,7.79695,7.89964,15.45221,15.45221,0,0,1,0,11.49Zm-4.90409-9.62283a10.06755,10.06755,0,0,0-2.0106-3.2623,9.59451,9.59451,0,0,0-3.09824-2.21661,9.93225,9.93225,0,0,0-7.85832-.02,9.28284,9.28284,0,0,0-3.05754,2.17528,10.00128,10.00128,0,0,0-1.98994,3.241,11.279,11.279,0,0,0,0,7.92093,10.05686,10.05686,0,0,0,2.01061,3.2623,9.559,9.559,0,0,0,3.09824,2.21536,9.93221,9.93221,0,0,0,7.85831.02,9.27714,9.27714,0,0,0,3.05692-2.174,10.01656,10.01656,0,0,0,1.99056-3.24226,11.27534,11.27534,0,0,0,0-7.91967Z"/><path class="cls-1" d="M654.83778,405.042h5.00616v28.72574h-4.21845L639.8187,413.33237v20.43538h-5.00678V405.042h4.66865l15.35721,19.86181Z"/><path class="cls-1" d="M707.77339,405.042h5.00615v28.72574H708.5611l-15.80679-20.43538v20.43538h-5.00678V405.042h4.66865l15.35721,19.86181Z"/><path class="cls-1" d="M748.39868,421.33345a16.40042,16.40042,0,0,1-.88226,5.62292,11.03449,11.03449,0,0,1-2.48272,4.04124,10.0293,10.0293,0,0,1-3.87781,2.42074,15.34116,15.34116,0,0,1-5.10885.80023,15.02434,15.02434,0,0,1-5.04748-.80023,10.17949,10.17949,0,0,1-3.85715-2.39945,10.6862,10.6862,0,0,1-2.46206-3.96109,15.927,15.927,0,0,1-.86222-5.47765V405.042h5.00678v16.33277q0,4.02183,1.93922,6.11383a6.95,6.95,0,0,0,5.36494,2.09388,7.04755,7.04755,0,0,0,5.32362-2.01123q1.93953-2.01,1.93984-5.9911V405.042h5.00615Z"/><path class="cls-1" d="M773.59538,426.70967h-.164L764.444,413.24972v20.518h-5.00678V405.042h5.37559l8.7412,13.58393,8.7412-13.58393h5.375v28.72574h-5.00553V413.16707Z"/><path class="cls-1" d="M820.41716,409.598H804.167v7.38619H818.57v4.55469H804.167v7.67423h16.4555v4.55469H799.16026V405.042h21.2569Zm-13.58393-6.93535,4.35057-6.73,4.51336,2.01122-5.00553,4.71875Z"/><path class="cls-1" d="M849.183,433.76775l-7.08062-10.01231h-6.338v10.01231h-5.00678V405.042H843.5613a14.61261,14.61261,0,0,1,4.452.63618,9.69023,9.69023,0,0,1,3.365,1.80585,7.79939,7.79939,0,0,1,2.11392,2.87282,10.2471,10.2471,0,0,1,.22542,7.01675,8.32824,8.32824,0,0,1-1.41638,2.50339,8.499,8.499,0,0,1-2.154,1.84718,10.68663,10.68663,0,0,1-2.77014,1.16841l7.75563,10.87516Zm-1.6468-22.955a7.03068,7.03068,0,0,0-4.40441-1.21475h-7.36741v9.6842h7.40873a6.60124,6.60124,0,0,0,4.32176-1.31869,4.34748,4.34748,0,0,0,1.60548-3.54407A4.28863,4.28863,0,0,0,847.53617,410.8127Z"/><path class="cls-1" d="M869.82373,405.042v28.72574H864.817V405.042Z"/><path class="cls-1" d="M910.77713,431.0189l-3.241,3.61045-3.44764-3.077a15.746,15.746,0,0,1-4.0212,1.98994,14.97916,14.97916,0,0,1-4.71875.71758,15.34889,15.34889,0,0,1-6.07375-1.16967,14.2527,14.2527,0,0,1-7.79695-7.89964,15.44406,15.44406,0,0,1,0-11.49,14.4426,14.4426,0,0,1,3.11827-4.73879,14.967,14.967,0,0,1,10.83383-4.41192,15.35334,15.35334,0,0,1,6.07376,1.16967,14.26293,14.26293,0,0,1,7.797,7.89964,15.02052,15.02052,0,0,1,1.107,5.74439,14.708,14.708,0,0,1-.7589,4.72,14.94876,14.94876,0,0,1-2.154,4.14393Zm-15.3472-6.97668,3.24226-3.69309,4.96545,4.51336a8.91566,8.91566,0,0,0,1.10831-2.52342,11.13976,11.13976,0,0,0,.36818-2.89286,10.94245,10.94245,0,0,0-.71758-3.95984,10.05848,10.05848,0,0,0-2.01123-3.2623,9.58773,9.58773,0,0,0-3.09824-2.21661,9.9322,9.9322,0,0,0-7.85831-.02,9.2867,9.2867,0,0,0-3.05692,2.17528,10.01194,10.01194,0,0,0-1.98994,3.241,11.2697,11.2697,0,0,0,0,7.92093,10.05533,10.05533,0,0,0,2.01,3.2623,9.57921,9.57921,0,0,0,3.09824,2.21536,9.40582,9.40582,0,0,0,3.9398.82027,9.26694,9.26694,0,0,0,2.66745-.36819,8.91437,8.91437,0,0,0,2.25668-1.0269Z"/><path class="cls-1" d="M944.7551,421.33345a16.385,16.385,0,0,1-.88289,5.62292,11.03334,11.03334,0,0,1-2.4821,4.04124,10.03163,10.03163,0,0,1-3.87844,2.42074,15.33729,15.33729,0,0,1-5.10821.80023,15.02811,15.02811,0,0,1-5.04811-.80023,10.17464,10.17464,0,0,1-3.85715-2.39945,10.69431,10.69431,0,0,1-2.46206-3.96109,15.92729,15.92729,0,0,1-.8616-5.47765V405.042h5.00553v16.33277q0,4.02183,1.93985,6.11383a6.94814,6.94814,0,0,0,5.36494,2.09388,7.04751,7.04751,0,0,0,5.32361-2.01123q1.9386-2.01,1.93985-5.9911V405.042h5.00678Z"/><path class="cls-1" d="M977.05,409.598H960.79984v7.38619h14.40294v4.55469H960.79984v7.67423h16.45549v4.55469H955.79306V405.042H977.05Z"/><path class="cls-1" d="M1028.67313,425.04784a13.32879,13.32879,0,0,1-3.13957,4.57473,14.8487,14.8487,0,0,1-4.84273,3.03687,16.69146,16.69146,0,0,1-6.17519,1.10831h-10.7111V405.042h10.7111a16.97331,16.97331,0,0,1,6.17519,1.08827,14.61446,14.61446,0,0,1,4.84273,3.01559,13.40459,13.40459,0,0,1,3.13957,4.55469,14.44275,14.44275,0,0,1,1.10705,5.663A14.58848,14.58848,0,0,1,1028.67313,425.04784Zm-4.9066-9.53643a9.34639,9.34639,0,0,0-2.01623-3.11076,9.08578,9.08578,0,0,0-3.14708-2.06132,10.97106,10.97106,0,0,0-4.11388-.74138h-5.678v19.61511h5.678a11.25021,11.25021,0,0,0,4.11388-.72134,8.99148,8.99148,0,0,0,3.14708-2.01874,9.13566,9.13566,0,0,0,2.01623-3.09073,11.11393,11.11393,0,0,0,0-7.87084Z"/><path class="cls-1" d="M1061.256,409.598H1045.0059v7.38619h14.40294v4.55469H1045.0059v7.67423h16.4555v4.55469h-21.46228V405.042h21.2569Z"/><path class="cls-1" d="M1108.4059,405.042h5.45761l-11.94213,28.93112h-4.43071L1085.54854,405.042h5.58034l8.6598,22.07842Z"/><path class="cls-1" d="M1148.78449,425.1092a14.45143,14.45143,0,0,1-3.11954,4.74,14.9669,14.9669,0,0,1-10.83257,4.41067,15.349,15.349,0,0,1-6.07376-1.16967,14.2527,14.2527,0,0,1-7.797-7.89964,15.44419,15.44419,0,0,1,0-11.49,14.44278,14.44278,0,0,1,3.11828-4.73879,14.96693,14.96693,0,0,1,10.83383-4.41192,15.35325,15.35325,0,0,1,6.07375,1.16967,14.263,14.263,0,0,1,7.797,7.89964,15.46037,15.46037,0,0,1,0,11.49Zm-4.90409-9.62283a10.05848,10.05848,0,0,0-2.01123-3.2623,9.58783,9.58783,0,0,0-3.09824-2.21661,9.93223,9.93223,0,0,0-7.85832-.02,9.28676,9.28676,0,0,0-3.05691,2.17528,10.01194,10.01194,0,0,0-1.98994,3.241,11.2697,11.2697,0,0,0,0,7.92093,10.05548,10.05548,0,0,0,2.01,3.2623,9.57925,9.57925,0,0,0,3.09825,2.21536,9.93525,9.93525,0,0,0,7.85956.02,9.29663,9.29663,0,0,0,3.05692-2.174,10.00444,10.00444,0,0,0,1.98994-3.24226,11.28461,11.28461,0,0,0,0-7.91967Z"/><path class="cls-1" d="M1165.404,405.042v28.72574h-5.00678V405.042Z"/><path class="cls-1" d="M1189.3672,433.76775H1184.279V409.72068h-9.10938V405.042h23.30819v4.67867h-9.11063Z"/><path class="cls-1" d="M1232.0463,421.33345a16.385,16.385,0,0,1-.88289,5.62292,11.03334,11.03334,0,0,1-2.4821,4.04124,10.03171,10.03171,0,0,1-3.87844,2.42074,15.33734,15.33734,0,0,1-5.10821.80023,15.02811,15.02811,0,0,1-5.04811-.80023,10.17464,10.17464,0,0,1-3.85715-2.39945,10.69405,10.69405,0,0,1-2.46206-3.96109,15.92729,15.92729,0,0,1-.8616-5.47765V405.042h5.00553v16.33277q0,4.02183,1.93984,6.11383a6.94817,6.94817,0,0,0,5.36495,2.09388,7.04751,7.04751,0,0,0,5.32361-2.01123q1.9386-2.01,1.93985-5.9911V405.042h5.00678Z"/><path class="cls-1" d="M1261.50965,433.76775l-7.08062-10.01231h-6.338v10.01231h-5.00678V405.042H1255.888a14.61268,14.61268,0,0,1,4.452.63618,9.69027,9.69027,0,0,1,3.365,1.80585,7.79928,7.79928,0,0,1,2.11392,2.87282,10.2471,10.2471,0,0,1,.22542,7.01675,8.32824,8.32824,0,0,1-1.41638,2.50339,8.49887,8.49887,0,0,1-2.154,1.84718,10.6867,10.6867,0,0,1-2.77013,1.16841l7.75562,10.87516Zm-1.6468-22.955a7.03068,7.03068,0,0,0-4.40441-1.21475H1248.091v9.6842h7.40873a6.60124,6.60124,0,0,0,4.32176-1.31869,4.34748,4.34748,0,0,0,1.60548-3.54407A4.28863,4.28863,0,0,0,1259.86285,410.8127Z"/><path class="cls-1" d="M1298.11249,409.598h-16.25012v7.38619h14.40295v4.55469h-14.40295v7.67423h16.4555v4.55469h-21.46228V405.042h21.2569Z"/><path class="cls-1" d="M1312.96877,414.02992a3.01588,3.01588,0,0,0,1.04945,1.14838,8.3837,8.3837,0,0,0,2.09764.98557q1.33747.45084,3.395.943a32.55961,32.55961,0,0,1,4.01118,1.27236,10.03658,10.03658,0,0,1,2.89913,1.70315,6.72363,6.72363,0,0,1,1.74949,2.33934,7.64294,7.64294,0,0,1,.5961,3.13832,8.48012,8.48012,0,0,1-.75264,3.653,7.72135,7.72135,0,0,1-2.09639,2.70751,9.24046,9.24046,0,0,1-3.22723,1.68312,14.148,14.148,0,0,1-4.14142.57482,18.13172,18.13172,0,0,1-6.36054-1.12834,17.36554,17.36554,0,0,1-5.62167-3.46768l3.03688-3.61169a17.59741,17.59741,0,0,0,4.22658,2.77013,11.63955,11.63955,0,0,0,4.84147.96429,6.26215,6.26215,0,0,0,3.71439-.98433,3.11378,3.11378,0,0,0,1.375-2.66744,3.47354,3.47354,0,0,0-.268-1.39508,2.79578,2.79578,0,0,0-.98683-1.1296,8.35518,8.35518,0,0,0-1.97491-.96429,33.6057,33.6057,0,0,0-3.27106-.943,34.51548,34.51548,0,0,1-4.09384-1.191,10.40708,10.40708,0,0,1-3.00306-1.64054,6.53934,6.53934,0,0,1-1.85219-2.38066,8.17219,8.17219,0,0,1-.63618-3.40632,7.87175,7.87175,0,0,1,.73136-3.42635,8.00587,8.00587,0,0,1,2.015-2.64615,8.93055,8.93055,0,0,1,3.08447-1.70316,12.4704,12.4704,0,0,1,3.93479-.59485,16.45112,16.45112,0,0,1,5.68429.923,16.92487,16.92487,0,0,1,4.73878,2.68748l-2.70752,3.81708a17.61008,17.61008,0,0,0-3.89847-2.19532,10.57558,10.57558,0,0,0-3.89848-.76016,5.31216,5.31216,0,0,0-3.44764,1.00561,3.05437,3.05437,0,0,0-1.231,2.442A3.47128,3.47128,0,0,0,1312.96877,414.02992Z"/><path class="cls-1" d="M360.507,338.75433h41.7146C388.58561,334.43182,374.19841,335.05219,360.507,338.75433Z"/><path class="cls-1" d="M372.26628,367.57343c-.6792-3.47925-2.29248-6.33289-5.79126-7.44287a148.51334,148.51334,0,0,0-15.43555-4.292c-5.65967-1.1416-11.44287-1.69751-17.18725-2.38318-3.25269-.3883-6.5354-.524-9.80982-.774a53.633,53.633,0,0,0,9.3999,31.64477c.98951.002,1.97.00464,2.98487.00464q21.988,0,35.91723-.6521A48.83987,48.83987,0,0,0,372.26628,367.57343Z"/><path class="cls-1" d="M319.50627,322.86176c2.93164,2.396,5.8623,4.79089,8.85425,7.23608-.73658,2.04968-1.49,4.145-2.43457,6.77271,30.21753-6.24329,60.11547-7.51758,90.04589-2.63184q.11573-4.64466.11646-9.86719,0-9.80493-.41211-17.54956a56.28266,56.28266,0,0,0-47.78247-9.939c-1.26758.32055-1.79419-.01538-2.529-1.05323-1.96875-2.78076-4.16626-5.3999-6.394-8.23742a66.07636,66.07636,0,0,1,27.95777-3.455,66.95093,66.95093,0,0,1,27.373,8.22608,59.32046,59.32046,0,0,0-1.3684-6.62977q-4.60657-16.63128-24.99048-19.361-14.15991-1.87389-51.85767-1.87646-37.78344,0-51.8562,1.87646-20.38513,2.731-24.99072,19.361-3.15637,11.34522-3.155,37.95472,0,27.97632,3.155,39.4049,4.60694,16.6313,24.99072,19.361,10.88452,1.44213,35.91138,1.77465C308.81682,362.52484,311.247,338.21149,319.50627,322.86176Zm2.12549-14.60523a36.16728,36.16728,0,0,1,19.03466-17.40014,10.74033,10.74033,0,0,1,9.87793.91687,21.32318,21.32318,0,0,1,9.80494,11.83264c1.40991,4.21191-.2815,6.834-4.606,7.38659-.1311,4.656-2.51294,6.87854-6.71655,6.14685-1.11695,4.113-4.08716,5.43055-8.03443,5.0813-1.35034,3.35181-3.33935,4.03919-6.45434,2.1919a49.85887,49.85887,0,0,1-12.02784-10.011C320.84465,312.51117,320.41838,310.583,321.63176,308.25653Z"/><path class="cls-1" d="M412.933,363.09332a67.741,67.741,0,0,0,1.73925-9.30932c-1.35009.13769-2.69873.28894-4.04248.47253a85.39236,85.39236,0,0,0-14.42187,3.64673c-4.90186,1.57715-7.44336,5.28345-8.21387,10.39246a73.99677,73.99677,0,0,0-.67773,14.235c.20532-.02563.42773-.05.62622-.07641Q408.32548,379.72528,412.933,363.09332Z"/></svg>